{
	"asset":{
		"generator":"Khronos glTF Blender I/O v4.5.47",
		"version":"2.0"
	},
	"scene":0,
	"scenes":[
		{
			"name":"Scene",
			"nodes":[
				0
			]
		}
	],
	"nodes":[
		{
			"mesh":0,
			"name":"uploads_files_2155451_cloud",
			"rotation":[
				0.48878708481788635,
				0.5109670162200928,
				-0.5109668970108032,
				0.48878711462020874
			],
			"scale":[
				0.00914144515991211,
				0.00914144515991211,
				0.00914144515991211
			]
		}
	],
	"meshes":[
		{
			"name":"uploads_files_2155451_cloud",
			"primitives":[
				{
					"attributes":{
						"POSITION":0,
						"NORMAL":1
					},
					"indices":2
				}
			]
		}
	],
	"accessors":[
		{
			"bufferView":0,
			"componentType":5126,
			"count":303357,
			"max":[
				566.0226440429688,
				824.6383666992188,
				269.90643310546875
			],
			"min":[
				-424.98193359375,
				-835.43115234375,
				-477.44671630859375
			],
			"type":"VEC3"
		},
		{
			"bufferView":1,
			"componentType":5126,
			"count":303357,
			"type":"VEC3"
		},
		{
			"bufferView":2,
			"componentType":5125,
			"count":310299,
			"type":"SCALAR"
		}
	],
	"bufferViews":[
		{
			"buffer":0,
			"byteLength":3640284,
			"byteOffset":0,
			"target":34962
		},
		{
			"buffer":0,
			"byteLength":3640284,
			"byteOffset":3640284,
			"target":34962
		},
		{
			"buffer":0,
			"byteLength":1241196,
			"byteOffset":7280568,
			"target":34963
		}
	],
	"buffers":[
		{
			"byteLength":8521764,
			"uri":"cloud.bin"
		}
	]
}
