{
	"asset":{
		"generator":"Khronos glTF Blender I/O v4.5.47",
		"version":"2.0"
	},
	"extensionsUsed":[
		"KHR_materials_clearcoat"
	],
	"scene":0,
	"scenes":[
		{
			"name":"Scene",
			"nodes":[
				0
			]
		}
	],
	"nodes":[
		{
			"mesh":0,
			"name":"Object_10",
			"rotation":[
				-0.70710688829422,
				0,
				0,
				0.7071066498756409
			],
			"scale":[
				0.03405686840415001,
				0.03584933653473854,
				0.03584933653473854
			]
		}
	],
	"materials":[
		{
			"doubleSided":true,
			"extensions":{
				"KHR_materials_clearcoat":{
					"clearcoatFactor":1,
					"clearcoatRoughnessFactor":0.03999999910593033
				}
			},
			"name":"Scene_-_Root",
			"pbrMetallicRoughness":{
				"metallicFactor":0.5,
				"roughnessFactor":0.6000000238418579
			}
		}
	],
	"meshes":[
		{
			"name":"Object_8",
			"primitives":[
				{
					"attributes":{
						"POSITION":0,
						"NORMAL":1
					},
					"indices":2,
					"material":0
				}
			]
		}
	],
	"accessors":[
		{
			"bufferView":0,
			"componentType":5126,
			"count":545437,
			"max":[
				49.11651611328125,
				23.808008193969727,
				55.861854553222656
			],
			"min":[
				-34.903472900390625,
				-19.151987075805664,
				-74.13813018798828
			],
			"type":"VEC3"
		},
		{
			"bufferView":1,
			"componentType":5126,
			"count":545437,
			"type":"VEC3"
		},
		{
			"bufferView":2,
			"componentType":5125,
			"count":2613120,
			"type":"SCALAR"
		}
	],
	"bufferViews":[
		{
			"buffer":0,
			"byteLength":6545244,
			"byteOffset":0,
			"target":34962
		},
		{
			"buffer":0,
			"byteLength":6545244,
			"byteOffset":6545244,
			"target":34962
		},
		{
			"buffer":0,
			"byteLength":10452480,
			"byteOffset":13090488,
			"target":34963
		}
	],
	"buffers":[
		{
			"byteLength":23542968,
			"uri":"graces.bin"
		}
	]
}
